<?xml version="1.0" encoding="utf-8"?>
<!-- Generator: Adobe Illustrator 27.2.0, SVG Export Plug-In . SVG Version: 6.00 Build 0)  -->
<svg version="1.1" id="レイヤー_1" xmlns="http://www.w3.org/2000/svg" xmlns:xlink="http://www.w3.org/1999/xlink" x="0px"
	 y="0px" viewBox="0 0 700 700" style="enable-background:new 0 0 700 700;" xml:space="preserve">
<style type="text/css">
	.st0{fill:none;stroke:#000000;stroke-miterlimit:10;}
	.st1{fill:none;stroke:#000000;stroke-width:5;stroke-miterlimit:10;}
	.st2{fill:none;stroke:#000000;stroke-width:8;stroke-miterlimit:10;}
	.st3{fill:none;stroke:#000000;stroke-width:8.1082;stroke-miterlimit:10;}
	.st4{fill:none;stroke:#000000;stroke-width:8.0856;stroke-miterlimit:10;}
	.st5{fill:none;stroke:#000000;stroke-width:4.152;stroke-miterlimit:10;}
	.st6{fill:none;stroke:#000000;stroke-width:6.6432;stroke-miterlimit:10;}
	.st7{fill:none;stroke:#000000;stroke-width:6.733;stroke-miterlimit:10;}
	.st8{fill:none;stroke:#000000;stroke-width:6.7143;stroke-miterlimit:10;}
</style>
<g>
	<g>
		<circle class="st1" cx="354.73" cy="300.35" r="197"/>
		<path class="st1" d="M256.5,415.93c58.03,35.49,132.87,39.92,196.95,5.13l-94-266.12L256.5,415.93z"/>
	</g>
	<g>
		<path d="M201.92,545.87h2.5l0.27,3.31h0.1c1.27-2.3,3.1-3.77,5.14-3.77c0.8,0,1.37,0.1,1.94,0.4l-0.57,2.67
			c-0.6-0.23-1.04-0.3-1.77-0.3c-1.5,0-3.37,1.07-4.57,4.17V564h-3.04V545.87z"/>
		<path d="M223.06,540.1c0-1.17,0.83-1.97,2.04-1.97c1.2,0,2.04,0.8,2.04,1.97c0,1.24-0.83,2.04-2.04,2.04
			C223.89,542.13,223.06,541.33,223.06,540.1z M223.56,545.87h3.04V564h-3.04V545.87z"/>
		<path d="M241.42,537.43h3v18.03h0.1l7.71-9.58h3.41l-6.04,7.31l6.84,10.82h-3.31l-5.31-8.75l-3.41,3.97V564h-3V537.43z"/>
		<path d="M267.17,554.96c0-6.04,3.97-9.55,8.41-9.55c4.44,0,8.41,3.5,8.41,9.55c0,6.01-3.97,9.48-8.41,9.48
			C271.14,564.44,267.17,560.96,267.17,554.96z M280.86,554.96c0-4.17-2.14-7.01-5.27-7.01c-3.14,0-5.24,2.84-5.24,7.01
			c0,4.17,2.1,6.94,5.24,6.94C278.72,561.9,280.86,559.13,280.86,554.96z"/>
		<path d="M313.62,537.43h3v18.03h0.1l7.71-9.58h3.41l-6.04,7.31l6.84,10.82h-3.31l-5.31-8.75l-3.41,3.97V564h-3V537.43z"/>
		<path d="M340.23,540.1c0-1.17,0.83-1.97,2.04-1.97c1.2,0,2.04,0.8,2.04,1.97c0,1.24-0.83,2.04-2.04,2.04
			C341.07,542.13,340.23,541.33,340.23,540.1z M340.74,545.87h3.04V564h-3.04V545.87z"/>
		<path d="M359.13,558.39v-10.05h-2.7v-2.3l2.84-0.17l0.37-5.11h2.54v5.11h4.91v2.47h-4.91v10.12c0,2.24,0.7,3.51,2.8,3.51
			c0.63,0,1.47-0.23,2.07-0.47l0.6,2.27c-1.04,0.33-2.24,0.67-3.34,0.67C360.44,564.44,359.13,562,359.13,558.39z"/>
		<path d="M378.74,559.3c0-3.94,3.44-5.91,11.15-6.78c0-2.34-0.77-4.57-3.74-4.57c-2.1,0-4.01,0.97-5.44,1.94l-1.2-2.1
			c1.67-1.07,4.24-2.37,7.15-2.37c4.41,0,6.28,2.97,6.28,7.44V564h-2.5l-0.27-2.17h-0.1c-1.74,1.44-3.77,2.6-6.01,2.6
			C381.01,564.44,378.74,562.57,378.74,559.3z M389.89,559.6v-5.07c-6.11,0.73-8.18,2.24-8.18,4.57c0,2.07,1.4,2.91,3.21,2.91
			C386.68,562,388.12,561.17,389.89,559.6z"/>
		<path d="M407.39,537.43h3.04v7.28l-0.1,3.74c1.67-1.67,3.54-3.04,6.01-3.04c3.81,0,5.54,2.47,5.54,7.11V564h-3.04v-11.08
			c0-3.41-1.04-4.84-3.44-4.84c-1.87,0-3.14,0.93-4.97,2.77V564h-3.04V537.43z"/>
		<path d="M435.21,559.3c0-3.94,3.44-5.91,11.15-6.78c0-2.34-0.77-4.57-3.74-4.57c-2.1,0-4.01,0.97-5.44,1.94l-1.2-2.1
			c1.67-1.07,4.24-2.37,7.15-2.37c4.41,0,6.28,2.97,6.28,7.44V564h-2.5l-0.27-2.17h-0.1c-1.74,1.44-3.77,2.6-6.01,2.6
			C437.48,564.44,435.21,562.57,435.21,559.3z M446.36,559.6v-5.07c-6.11,0.73-8.18,2.24-8.18,4.57c0,2.07,1.4,2.91,3.21,2.91
			C443.15,562,444.59,561.17,446.36,559.6z"/>
		<path d="M463.86,545.87h2.5l0.27,3.31h0.1c1.27-2.3,3.1-3.77,5.14-3.77c0.8,0,1.37,0.1,1.94,0.4l-0.57,2.67
			c-0.6-0.23-1.04-0.3-1.77-0.3c-1.5,0-3.37,1.07-4.57,4.17V564h-3.04V545.87z"/>
		<path d="M484.36,559.3c0-3.94,3.44-5.91,11.15-6.78c0-2.34-0.77-4.57-3.74-4.57c-2.1,0-4.01,0.97-5.44,1.94l-1.2-2.1
			c1.67-1.07,4.24-2.37,7.14-2.37c4.41,0,6.28,2.97,6.28,7.44V564h-2.5l-0.27-2.17h-0.1c-1.74,1.44-3.77,2.6-6.01,2.6
			C486.63,564.44,484.36,562.57,484.36,559.3z M495.51,559.6v-5.07c-6.11,0.73-8.18,2.24-8.18,4.57c0,2.07,1.4,2.91,3.21,2.91
			C492.31,562,493.74,561.17,495.51,559.6z"/>
	</g>
	<path class="st2" d="M683.47,144.03v157.44c0,0-84.34-9.73-84.34-51.01S683.47,144.03,683.47,144.03z"/>
	<line class="st2" x1="683.47" y1="301.47" x2="683.47" y2="475"/>
	<line class="st2" x1="661.15" y1="299.96" x2="641.3" y2="475"/>
	<line class="st3" x1="65.03" y1="123" x2="65.03" y2="475"/>
	<path class="st4" d="M16.7,135.02c0,0-0.47,119.57,0.37,125.68c0.84,6.1-0.84,40.28,46.03,40.28c41.05,0,46.87-18.31,46.87-46.38
		c0-38.08,0.15-119.57,0.15-119.57"/>
</g>
</svg>
