<?xml version="1.0" encoding="utf-8"?>
<!-- Generator: Adobe Illustrator 27.2.0, SVG Export Plug-In . SVG Version: 6.00 Build 0)  -->
<svg version="1.1" id="レイヤー_1" xmlns="http://www.w3.org/2000/svg" xmlns:xlink="http://www.w3.org/1999/xlink" x="0px"
	 y="0px" viewBox="0 0 2210 700" style="enable-background:new 0 0 2210 700;" xml:space="preserve">
<style type="text/css">
	.st0{fill:none;stroke:#000000;stroke-miterlimit:10;}
	.st1{fill:none;stroke:#000000;stroke-width:5;stroke-miterlimit:10;}
	.st2{fill:none;stroke:#000000;stroke-width:8;stroke-miterlimit:10;}
	.st3{fill:none;stroke:#000000;stroke-width:8.1082;stroke-miterlimit:10;}
	.st4{fill:none;stroke:#000000;stroke-width:8.0856;stroke-miterlimit:10;}
	.st5{fill:none;stroke:#000000;stroke-width:4.152;stroke-miterlimit:10;}
	.st6{fill:none;stroke:#000000;stroke-width:6.6432;stroke-miterlimit:10;}
	.st7{fill:none;stroke:#000000;stroke-width:6.733;stroke-miterlimit:10;}
	.st8{fill:none;stroke:#000000;stroke-width:6.7143;stroke-miterlimit:10;}
</style>
<g>
	<g>
		<path d="M819.9,325.23h12.26l1.31,16.19h0.49c6.21-11.28,15.21-18.48,25.18-18.48c3.92,0,6.7,0.49,9.48,1.96l-2.78,13.08
			c-2.94-1.14-5.07-1.47-8.67-1.47c-7.36,0-16.51,5.23-22.4,20.44v57.06H819.9V325.23z"/>
		<path d="M910.31,296.94c0-5.72,4.09-9.65,9.97-9.65s9.97,3.92,9.97,9.65c0,6.05-4.09,9.97-9.97,9.97S910.31,302.99,910.31,296.94z
			 M912.77,325.23h14.88v88.78h-14.88V325.23z"/>
		<path d="M987.16,283.86h14.71v88.29h0.49l37.77-46.92h16.68l-29.59,35.81l33.52,52.97h-16.19l-26-42.84l-16.68,19.46v23.38h-14.71
			V283.86z"/>
		<path d="M1100.13,369.7c0-29.59,19.46-46.76,41.2-46.76s41.2,17.17,41.2,46.76c0,29.43-19.46,46.43-41.2,46.43
			S1100.13,399.13,1100.13,369.7z M1167.17,369.7c0-20.44-10.46-34.33-25.83-34.33c-15.37,0-25.67,13.9-25.67,34.33
			c0,20.44,10.3,34.01,25.67,34.01C1156.7,403.71,1167.17,390.14,1167.17,369.7z"/>
		<path d="M1301.4,283.86h14.71v88.29h0.49l37.77-46.92h16.68l-29.59,35.81l33.52,52.97h-16.19l-26-42.84l-16.68,19.46v23.38h-14.71
			V283.86z"/>
		<path d="M1418.63,296.94c0-5.72,4.09-9.65,9.97-9.65s9.97,3.92,9.97,9.65c0,6.05-4.09,9.97-9.97,9.97
			S1418.63,302.99,1418.63,296.94z M1421.08,325.23h14.88v88.78h-14.88V325.23z"/>
		<path d="M1498.09,386.54v-49.21h-13.24v-11.28l13.9-0.82l1.8-25.02h12.43v25.02H1537v12.1h-24.03v49.54
			c0,10.95,3.43,17.17,13.73,17.17c3.11,0,7.19-1.14,10.14-2.29l2.94,11.12c-5.07,1.63-10.95,3.27-16.35,3.27
			C1504.46,416.13,1498.09,404.2,1498.09,386.54z"/>
		<path d="M1580.98,390.96c0-19.29,16.84-28.94,54.61-33.19c0-11.45-3.76-22.4-18.31-22.4c-10.3,0-19.62,4.74-26.65,9.48l-5.89-10.3
			c8.17-5.23,20.76-11.61,34.99-11.61c21.58,0,30.74,14.55,30.74,36.46v54.61h-12.26l-1.31-10.63h-0.49
			c-8.5,7.03-18.47,12.75-29.43,12.75C1592.1,416.13,1580.98,406.98,1580.98,390.96z M1635.59,392.43v-24.85
			c-29.92,3.6-40.06,10.95-40.06,22.4c0,10.14,6.87,14.22,15.7,14.22C1619.9,404.2,1626.93,400.11,1635.59,392.43z"/>
		<path d="M1708.19,283.86h14.88v35.64l-0.49,18.31c8.17-8.17,17.33-14.88,29.43-14.88c18.64,0,27.14,12.1,27.14,34.83v56.24h-14.88
			v-54.28c0-16.68-5.07-23.71-16.84-23.71c-9.16,0-15.37,4.58-24.36,13.57v64.42h-14.88V283.86z"/>
		<path d="M1831.3,390.96c0-19.29,16.84-28.94,54.61-33.19c0-11.45-3.76-22.4-18.31-22.4c-10.3,0-19.62,4.74-26.65,9.48l-5.89-10.3
			c8.17-5.23,20.76-11.61,34.99-11.61c21.58,0,30.74,14.55,30.74,36.46v54.61h-12.26l-1.31-10.63h-0.49
			c-8.5,7.03-18.47,12.75-29.43,12.75C1842.42,416.13,1831.3,406.98,1831.3,390.96z M1885.91,392.43v-24.85
			c-29.92,3.6-40.06,10.95-40.06,22.4c0,10.14,6.87,14.22,15.7,14.22C1870.21,404.2,1877.24,400.11,1885.91,392.43z"/>
		<path d="M1958.5,325.23h12.26l1.31,16.19h0.49c6.21-11.28,15.21-18.48,25.18-18.48c3.92,0,6.7,0.49,9.48,1.96l-2.78,13.08
			c-2.94-1.14-5.07-1.47-8.67-1.47c-7.36,0-16.51,5.23-22.4,20.44v57.06h-14.88V325.23z"/>
		<path d="M2045.81,390.96c0-19.29,16.84-28.94,54.61-33.19c0-11.45-3.76-22.4-18.31-22.4c-10.3,0-19.62,4.74-26.65,9.48l-5.89-10.3
			c8.17-5.23,20.76-11.61,34.99-11.61c21.58,0,30.74,14.55,30.74,36.46v54.61h-12.26l-1.31-10.63h-0.49
			c-8.5,7.03-18.47,12.75-29.43,12.75C2056.93,416.13,2045.81,406.98,2045.81,390.96z M2100.42,392.43v-24.85
			c-29.92,3.6-40.06,10.95-40.06,22.4c0,10.14,6.87,14.22,15.7,14.22C2084.72,404.2,2091.75,400.11,2100.42,392.43z"/>
	</g>
</g>
<g>
	<circle class="st5" cx="323.93" cy="350" r="163.59"/>
	<path class="st5" d="M242.36,445.98c48.19,29.47,110.34,33.15,163.55,4.26l-78.06-220.99L242.36,445.98z"/>
</g>
<path class="st6" d="M596.92,220.19v130.74c0,0-70.04-8.08-70.04-42.36S596.92,220.19,596.92,220.19z"/>
<line class="st6" x1="596.92" y1="350.93" x2="596.92" y2="495.03"/>
<line class="st6" x1="578.39" y1="349.68" x2="561.9" y2="495.03"/>
<line class="st7" x1="83.37" y1="202.24" x2="83.37" y2="495.03"/>
<path class="st8" d="M43.23,212.71c0,0-0.39,99.29,0.31,104.36c0.7,5.07-0.7,33.45,38.23,33.45c34.09,0,38.92-15.2,38.92-38.51
	c0-31.62,0.13-99.29,0.13-99.29"/>
</svg>
